<svg width="18.000000" height="14.000000" viewBox="0 0 18 14" fill="none" xmlns="http://www.w3.org/2000/svg" xmlns:xlink="http://www.w3.org/1999/xlink">
	<desc>
			Created with Pixso.
	</desc>
	<defs/>
	<g opacity="0.300000">
		<path d="M17.39 1.41C16.72 1.7 16 1.88 15.27 1.97C16.03 1.53 16.62 0.84 16.89 0.01C16.17 0.42 15.37 0.71 14.55 0.87C13.85 0.15 12.87 -0.25 11.85 -0.25C9.81 -0.25 8.15 1.33 8.15 3.29C8.15 3.56 8.18 3.83 8.25 4.09C5.17 3.94 2.45 2.54 0.62 0.4C0.3 0.92 0.12 1.53 0.12 2.18C0.12 3.4 0.78 4.48 1.77 5.12C1.18 5.1 0.61 4.95 0.09 4.67L0.09 4.72C0.09 6.43 1.37 7.86 3.06 8.19C2.51 8.33 1.94 8.35 1.39 8.25C1.86 9.65 3.22 10.67 4.84 10.7C3.58 11.65 1.98 12.21 0.25 12.21C-0.04 12.21 -0.34 12.2 -0.63 12.16C1 13.17 2.95 13.75 5.04 13.75C11.84 13.75 15.56 8.37 15.56 3.7C15.56 3.54 15.56 3.39 15.55 3.24C16.27 2.74 16.89 2.12 17.39 1.41L17.39 1.41Z" fill="#FFFFFF" fill-opacity="1.000000" fill-rule="nonzero"/>
	</g>
</svg>
